<svg viewBox="0 0 20 20" fill="none" xmlns="http://www.w3.org/2000/svg">
<path fill-rule="evenodd" clip-rule="evenodd" d="M7.05838 2.05806C7.30246 1.81398 7.69819 1.81398 7.94227 2.05806L9.60893 3.72472C9.78768 3.90347 9.84116 4.1723 9.74442 4.40584C9.64768 4.63939 9.41978 4.79167 9.16699 4.79167H7.50033C4.62384 4.79167 2.29199 7.12352 2.29199 10C2.29199 12.8765 4.62404 15.2083 7.50056 15.2083H7.91699C8.26217 15.2083 8.54199 15.4882 8.54199 15.8333C8.54199 16.1785 8.26217 16.4583 7.91699 16.4583H7.50056C3.93375 16.4583 1.04199 13.5669 1.04199 10C1.04199 6.43316 3.93349 3.54167 7.50033 3.54167H7.65811L7.05838 2.94194C6.81431 2.69786 6.81431 2.30214 7.05838 2.05806ZM11.4587 4.16667C11.4587 3.82149 11.7385 3.54167 12.0837 3.54167H12.5003C16.0672 3.54167 18.9587 6.43316 18.9587 10C18.9587 13.5668 16.0672 16.4583 12.5003 16.4583H12.3425L12.9423 17.0581C13.1863 17.3021 13.1863 17.6979 12.9423 17.9419C12.6982 18.186 12.3025 18.186 12.0584 17.9419L10.3917 16.2753C10.213 16.0965 10.1595 15.8277 10.2562 15.5942C10.353 15.3606 10.5809 15.2083 10.8337 15.2083H12.5003C15.3768 15.2083 17.7087 12.8765 17.7087 10C17.7087 7.12352 15.3768 4.79167 12.5003 4.79167H12.0837C11.7385 4.79167 11.4587 4.51184 11.4587 4.16667Z"/>
</svg>
