<svg viewBox="0 0 24 24" fill="none" xmlns="http://www.w3.org/2000/svg">
<path d="M13.2306 9.25304C15.9495 9.25304 18.1536 7.18168 18.1536 4.62652C18.1536 2.07136 15.9495 0 13.2306 0C10.5117 0 8.30759 2.07136 8.30759 4.62652C8.30759 7.18168 10.5117 9.25304 13.2306 9.25304Z"/>
<path d="M1.81879 4.41605C1.69515 3.95126 1.19398 3.66867 0.699408 3.78487C0.204834 3.90107 -0.0958647 4.37205 0.0277788 4.83684L0.497885 6.60401C1.36527 9.8646 3.99507 12.4332 7.38474 13.3922L7.38474 18.5662C7.3847 19.6054 7.38467 20.4719 7.48309 21.1599C7.58697 21.886 7.81549 22.5416 8.37606 23.0684C8.93663 23.5952 9.63422 23.8099 10.4069 23.9076C11.1389 24.0001 12.061 24 13.1668 24H13.2948C14.4006 24 15.3227 24.0001 16.0548 23.9076C16.8274 23.8099 17.525 23.5952 18.0856 23.0684C18.6462 22.5416 18.8747 21.886 18.9785 21.1599C19.077 20.4719 19.0769 19.6054 19.0769 18.5662L19.0769 13.7164C20.2844 14.0547 21.2068 15.0406 21.3608 16.2703L22.1601 22.6556C22.2197 23.1314 22.6784 23.4717 23.1847 23.4157C23.691 23.3598 24.0532 22.9287 23.9936 22.4529L23.1942 16.0676C22.8935 13.6656 20.7274 11.8554 18.1538 11.8554H8.41184C5.40455 11.192 3.03943 9.00456 2.2889 6.18323L1.81879 4.41605Z"/>
</svg>
