<svg viewBox="0 0 16 16" fill="none" xmlns="http://www.w3.org/2000/svg">
<path fill-rule="evenodd" clip-rule="evenodd" d="M8 16C12.4183 16 16 12.4183 16 8C16 3.58172 12.4183 0 8 0C3.58172 0 0 3.58172 0 8C0 12.4183 3.58172 16 8 16ZM8.6 5.6C8.6 5.26863 8.33137 5 8 5C7.66863 5 7.4 5.26863 7.4 5.6L7.4 7.40002H5.6C5.26863 7.40002 5 7.66865 5 8.00002C5 8.33139 5.26863 8.60002 5.6 8.60002H7.4V10.4C7.4 10.7314 7.66863 11 8 11C8.33137 11 8.6 10.7314 8.6 10.4L8.6 8.60002H10.4C10.7314 8.60002 11 8.33139 11 8.00002C11 7.66865 10.7314 7.40002 10.4 7.40002H8.6V5.6Z"/>
</svg>
